<svg width="912" height="912" viewBox="0 0 912 912" fill="none" xmlns="http://www.w3.org/2000/svg">
<circle cx="456" cy="456" r="456" fill="#2D8CFF"/>
<path d="M199.5 349.125C199.5 333.385 212.26 320.625 228 320.625H470.25C529.275 320.625 577.125 368.475 577.125 427.5V562.875C577.125 578.615 564.365 591.375 548.625 591.375H306.375C247.35 591.375 199.5 543.525 199.5 484.5V349.125Z" fill="white"/>
<path fill-rule="evenodd" clip-rule="evenodd" d="M676.815 583.829L618.293 538.653C614.797 535.955 612.75 531.789 612.75 527.373V413.127C612.75 408.711 614.797 404.545 618.293 401.847L676.815 356.671C681.345 352.016 687.679 349.125 694.688 349.125C708.46 349.125 719.625 360.29 719.625 374.062V566.438C719.625 580.21 708.46 591.375 694.688 591.375C687.679 591.375 681.345 588.484 676.815 583.829Z" fill="white"/>
</svg>
